HIERARCHY
ROOT Hips
{
	OFFSET 0.00000 0.00000 0.00000
	CHANNELS 6 Xposition Yposition Zposition Zrotation Yrotation Xrotation 
	JOINT LHipJoint
	{
		OFFSET 0 0 0
		CHANNELS 3 Zrotation Yrotation Xrotation
		JOINT LeftUpLeg
		{
			OFFSET 1.65412 -1.54119 0.76744
			CHANNELS 3 Zrotation Yrotation Xrotation
			JOINT LeftLeg
			{
				OFFSET 2.19550 -6.03209 0.00000
				CHANNELS 3 Zrotation Yrotation Xrotation
				JOINT LeftFoot
				{
					OFFSET 2.38814 -6.56138 0.00000
					CHANNELS 3 Zrotation Yrotation Xrotation
					JOINT LeftToeBase
					{
						OFFSET 0.17337 -0.47632 1.75875
						CHANNELS 3 Zrotation Yrotation Xrotation
						End Site
						{
							OFFSET 0.00000 -0.00000 0.92050
						}
					}
				}
			}
		}
	}
	JOINT RHipJoint
	{
		OFFSET 0 0 0
		CHANNELS 3 Zrotation Yrotation Xrotation
		JOINT RightUpLeg
		{
			OFFSET -1.40291 -1.54119 0.76744
			CHANNELS 3 Zrotation Yrotation Xrotation
			JOINT RightLeg
			{
				OFFSET -2.22156 -6.10370 0.00000
				CHANNELS 3 Zrotation Yrotation Xrotation
				JOINT RightFoot
				{
					OFFSET -2.46840 -6.78188 0.00000
					CHANNELS 3 Zrotation Yrotation Xrotation
					JOINT RightToeBase
					{
						OFFSET -0.15659 -0.43024 1.84117
						CHANNELS 3 Zrotation Yrotation Xrotation
						End Site
						{
							OFFSET -0.00000 -0.00000 0.95587
						}
					}
				}
			}
		}
	}
	JOINT LowerBack
	{
		OFFSET 0 0 0
		CHANNELS 3 Zrotation Yrotation Xrotation
		JOINT Spine
		{
			OFFSET -0.01936 1.82120 -0.32061
			CHANNELS 3 Zrotation Yrotation Xrotation
			JOINT Spine1
			{
				OFFSET -0.00532 1.85767 -0.00071
				CHANNELS 3 Zrotation Yrotation Xrotation
				JOINT Neck
				{
					OFFSET 0 0 0
					CHANNELS 3 Zrotation Yrotation Xrotation
					JOINT Neck1
					{
						OFFSET -0.10687 1.58194 0.10810
						CHANNELS 3 Zrotation Yrotation Xrotation
						JOINT Head
						{
							OFFSET 0.15346 1.57382 -0.25612
							CHANNELS 3 Zrotation Yrotation Xrotation
							End Site
							{
								OFFSET 0.05334 1.61251 -0.10513
							}
						}
					}
				}
				JOINT LeftShoulder
				{
					OFFSET 0 0 0
					CHANNELS 3 Zrotation Yrotation Xrotation
					JOINT LeftArm
					{
						OFFSET 2.85758 0.89498 -0.01485
						CHANNELS 3 Zrotation Yrotation Xrotation
						JOINT LeftForeArm
						{
							OFFSET 4.79185 -0.00000 -0.00000
							CHANNELS 3 Zrotation Yrotation Xrotation
							JOINT LeftHand
							{
								OFFSET 2.65553 -0.00000 0.00000
								CHANNELS 3 Zrotation Yrotation Xrotation
								JOINT LeftFingerBase
								{
									OFFSET 0 0 0
									CHANNELS 3 Zrotation Yrotation Xrotation
									JOINT LeftHandIndex1
									{
										OFFSET 0.74390 -0.00000 0.00000
										CHANNELS 3 Zrotation Yrotation Xrotation
										End Site
										{
											OFFSET 0.59975 -0.00000 0.00000
										}
									}
								}
								JOINT LThumb
								{
									OFFSET 0 0 0
									CHANNELS 3 Zrotation Yrotation Xrotation
									End Site
									{
										OFFSET 0.60891 -0.00000 0.60891
									}
								}
							}
						}
					}
				}
				JOINT RightShoulder
				{
					OFFSET 0 0 0
					CHANNELS 3 Zrotation Yrotation Xrotation
					JOINT RightArm
					{
						OFFSET -2.93906 0.88031 0.02490
						CHANNELS 3 Zrotation Yrotation Xrotation
						JOINT RightForeArm
						{
							OFFSET -4.77254 -0.00000 -0.00000
							CHANNELS 3 Zrotation Yrotation Xrotation
							JOINT RightHand
							{
								OFFSET -2.75995 -0.00000 -0.00000
								CHANNELS 3 Zrotation Yrotation Xrotation
								JOINT RightFingerBase
								{
									OFFSET 0 0 0
									CHANNELS 3 Zrotation Yrotation Xrotation
									JOINT RightHandIndex1
									{
										OFFSET -0.70162 -0.00000 0.00000
										CHANNELS 3 Zrotation Yrotation Xrotation
										End Site
										{
											OFFSET -0.56566 -0.00000 0.00000
										}
									}
								}
								JOINT RThumb
								{
									OFFSET 0 0 0
									CHANNELS 3 Zrotation Yrotation Xrotation
									End Site
									{
										OFFSET -0.57430 -0.00000 0.57430
									}
								}
							}
						}
					}
				}
			}
		}
	}
}
MOTION
Frames: 16
Frame Time: .0083333
0.3014 16.1148 0.2406 0 0 0 0 0 0 -21 0 0 0 0 0 0 0 0 0 0 0 0 0 0 21 0 0 0 0 0 0 0 0 0 0 0 0 0 0 0 0 0 0 0 0 0 0 -16 0 0 21 0 0 11 0 0 0 -8 0 0 0 0 0 0 0 0 0 0 0 0 0 0 0 0 0 0 0 0 8 0 0 0 0 0 0 0 0 0 0 0 0 0 0 0 0 0
0.3014 16.1148 0.2406 -1.6829 -0.8609 -1.2783 0.0000 0.0000 0.0000 -16.3851 -7.7607 13.7453 0.0000 -0.0000 -0.0000 -0.1351 8.7709 -9.4735 0.3957 -4.0391 -11.1866 0.0000 0.0000 0.0000 19.6064 9.3314 9.3621 -0.2304 -3.0896 8.5283 0.0000 -9.7841 -13.9379 -0.3827 3.9727 -11.0000 -0.9326 0.5559 9.9569 0.0522 0.6282 -1.6941 0.4789 0.3479 -7.3950 -17.1848 -12.9132 -5.4384 10.6145 -17.8464 18.2069 4.2873 -8.8401 9.1239 0.0000 0.0000 0.0000 -88.8795 -5.6927 58.7775 17.1869 -27.1036 -4.1722 -0.0000 0.0000 -4.9596 8.6345 10.1101 1.5269 -7.1250 0.0000 -0.0000 -15.9764 39.6952 2.1527 0.0000 0.0000 0.0000 84.6431 1.6733 78.7951 -55.4702 54.9768 -30.6007 0.0000 0.0000 9.5801 -15.6132 17.8815 -4.9043 7.1250 -0.0000 -0.0000 8.1442 -11.6016 6.4067
0.2955 16.1046 0.2341 -1.6440 -1.8744 -1.7862 0.0000 0.0000 0.0000 -16.4019 -6.5810 14.1252 0.0000 -0.0000 -0.0000 -0.1214 8.6858 -9.6848 0.4025 -4.0729 -11.2818 0.0000 0.0000 0.0000 19.7108 10.2535 9.8242 -0.2605 -3.2839 9.0702 -0.0308 -9.6388 -14.2420 -0.2481 3.2052 -8.8507 -1.1738 0.9212 10.5611 0.0734 1.0792 -1.5939 0.5557 0.5789 -7.6471 -17.1245 -12.8647 -5.5209 10.5793 -17.7751 18.3131 4.2730 -8.8025 9.1549 -0.0000 0.0000 0.0000 -88.9415 -5.5029 57.8628 16.9179 -26.7494 -4.0503 -0.0000 0.0000 -5.2893 8.6299 10.1849 1.5373 -7.1250 0.0000 -0.0000 -15.9994 39.7674 2.1266 -0.0000 0.0000 0.0000 84.8202 1.4187 77.9923 -54.2965 54.5879 -29.6418 0.0000 0.0000 9.1339 -15.7920 17.6570 -4.9031 7.1250 -0.0000 -0.0000 8.0201 -11.8114 6.2720
0.2902 16.1005 0.2299 -1.6424 -2.4200 -2.0861 0.0000 0.0000 0.0000 -16.3744 -5.9434 14.3493 0.0000 -0.0000 -0.0000 -0.1123 8.6299 -9.8226 0.4029 -4.0750 -11.2876 0.0000 0.0000 0.0000 19.8067 10.7059 10.1902 -0.2644 -3.3077 9.1367 -0.0151 -9.7471 -14.1361 -0.2876 3.4490 -9.5315 -1.3232 1.1261 10.9176 0.0898 1.3287 -1.5258 0.6088 0.7073 -7.7879 -17.0017 -12.8078 -5.6547 10.4972 -17.6813 18.4246 4.2346 -8.7519 9.1829 0.0000 0.0000 0.0000 -89.0095 -5.3031 56.7728 16.7056 -26.4681 -3.9552 -0.0000 0.0000 -5.4919 8.4868 10.5221 1.5608 -7.1250 0.0000 -0.0000 -16.2075 40.0823 2.0262 0.0000 0.0000 0.0000 85.0545 1.2239 77.0408 -52.9207 54.1076 -28.5239 0.0000 0.0000 9.0016 -15.7899 17.3999 -4.8336 7.1250 -0.0000 -0.0000 8.0143 -12.0739 6.2233
0.2882 16.1023 0.2272 -1.6791 -2.3434 -2.0816 0.0000 0.0000 0.0000 -16.3320 -6.0310 14.3398 0.0000 0.0000 0.0000 -0.1147 8.6487 -9.7946 0.4069 -4.0952 -11.3446 0.0000 0.0000 0.0000 19.8557 10.6838 10.0195 -0.2750 -3.3729 9.3188 0.0104 -9.9060 -13.9379 -0.4659 4.3783 -12.1434 -1.3155 1.0919 10.9614 0.0928 1.2838 -1.5279 0.6149 0.6852 -7.8141 -16.9145 -12.7367 -5.7748 10.4650 -17.5718 18.4901 4.2218 -8.6930 9.1989 0.0000 -0.0000 0.0000 -89.0649 -5.0868 55.6993 16.5820 -26.3034 -3.9003 -0.0000 0.0000 -5.7237 8.4573 11.1285 1.6438 -7.1250 0.0000 -0.0000 -16.3935 40.6668 1.8069 0.0000 -0.0000 0.0000 85.3367 1.0079 75.8515 -51.5087 53.5861 -27.3837 0.0000 0.0000 9.2312 -15.5358 17.3907 -4.7498 7.1250 -0.0000 -0.0000 8.1817 -12.1095 6.3500
0.2909 16.1031 0.2278 -1.6457 -2.1729 -2.0334 0.0000 0.0000 0.0000 -16.3927 -6.2135 14.3153 0.0000 0.0000 0.0000 -0.1171 8.6576 -9.7487 0.4082 -4.1017 -11.3628 0.0000 0.0000 0.0000 19.7851 10.5174 9.9820 -0.2669 -3.3234 9.1804 0.0249 -9.9790 -13.7989 -0.5633 4.8072 -13.3595 -1.3026 1.0262 10.9223 0.0661 1.1964 -1.5424 0.5952 0.6415 -7.8044 -16.8914 -12.6790 -5.8551 10.5112 -17.4961 18.5419 4.2416 -8.6494 9.2220 0.0000 -0.0000 0.0000 -89.1169 -4.8437 54.7503 16.4472 -26.1232 -3.8407 -0.0000 0.0000 -5.9334 8.6101 11.7172 1.7613 -7.1250 0.0000 -0.0000 -16.4242 41.2499 1.5666 0.0000 -0.0000 0.0000 85.5842 0.6933 74.6678 -50.2574 53.0988 -26.3799 0.0000 0.0000 9.3714 -15.5548 16.9910 -4.6503 7.1250 -0.0000 -0.0000 8.1594 -12.5147 6.2628
0.2948 16.1041 0.2312 -1.4881 -2.0909 -1.9408 0.0000 0.0000 0.0000 -16.5827 -6.3114 14.2378 0.0000 -0.0000 -0.0000 -0.1181 8.6614 -9.7293 0.3843 -3.9812 -11.0239 0.0000 0.0000 0.0000 19.5666 10.4254 10.0145 -0.2518 -3.2288 8.9165 0.0367 -10.0322 -13.6748 -0.5755 4.8579 -13.5038 -1.3908 0.9980 10.7970 -0.0092 1.1428 -1.5711 0.5763 0.6175 -7.7623 -16.8521 -12.6146 -5.8775 10.5377 -17.4132 18.5485 4.2577 -8.6055 9.2145 0.0000 0.0000 0.0000 -89.1731 -4.5835 53.4877 16.1972 -25.7873 -3.7314 -0.0000 0.0000 -5.9049 8.6095 11.6833 1.7561 -7.1250 0.0000 -0.0000 -16.4152 41.2170 1.5794 0.0000 0.0000 0.0000 85.8411 0.3650 73.5364 -48.9570 52.5661 -25.3436 0.0000 0.0000 9.4829 -15.7479 16.4412 -4.5632 7.1250 -0.0000 -0.0000 8.0185 -13.0561 6.0607
0.3099 16.1129 0.2557 -1.5292 -0.3527 -1.3318 0.0000 0.0000 0.0000 -16.6480 -8.2239 13.9341 0.0000 0.0000 0.0000 -0.1378 8.8109 -9.4777 0.4022 -4.0716 -11.2782 0.0000 0.0000 0.0000 19.4224 8.8276 9.2707 -0.2393 -3.1482 8.6915 0.0116 -9.9072 -13.9190 -0.5227 4.6335 -12.8662 -0.9704 0.3469 9.8354 -0.0742 0.3371 -1.6444 0.4149 0.2037 -7.2668 -16.7979 -12.5444 -5.9144 10.5381 -17.3104 18.5041 4.2654 -8.5527 9.1849 -0.0000 -0.0000 0.0000 -89.2398 -4.4206 51.9944 15.8686 -25.3422 -3.5896 -0.0000 0.0000 -5.8446 8.4065 11.2189 1.6469 -7.1250 0.0000 -0.0000 -16.4614 40.7498 1.7800 -0.0000 -0.0000 0.0000 86.0645 0.1963 72.3967 -47.5345 51.9514 -24.2186 0.0000 0.0000 9.5735 -15.6735 16.1870 -4.4726 7.1250 -0.0000 -0.0000 8.0627 -13.3229 6.0493
0.3213 16.1153 0.2692 -1.5842 0.3007 -1.1110 0.0000 0.0000 0.0000 -16.6425 -8.9358 13.8401 0.0000 -0.0000 -0.0000 -0.1435 8.8589 -9.4100 0.4149 -4.1345 -11.4553 0.0000 0.0000 0.0000 19.3863 8.2003 9.0703 -0.2276 -3.0708 8.4758 0.0027 -9.8426 -13.9756 -0.5086 4.5715 -12.6903 -0.6875 0.0944 9.4260 -0.1081 0.0363 -1.6495 0.2680 0.0434 -7.0325 -16.8019 -12.4941 -5.9677 10.6067 -17.2437 18.4883 4.2972 -8.5144 9.1860 -0.0000 0.0000 0.0000 -89.2354 -4.2664 50.8176 15.5737 -24.9392 -3.4642 -0.0000 0.0000 -5.9556 8.3728 11.0047 1.6093 -7.1250 0.0000 -0.0000 -16.4321 40.5396 1.8646 -0.0000 0.0000 0.0000 86.2765 0.0074 71.0986 -46.1502 51.3197 -23.1332 0.0000 0.0000 9.7872 -15.3286 16.0636 -4.3374 7.1250 -0.0000 -0.0000 8.2911 -13.4816 6.1963
0.3264 16.1142 0.2770 -1.5857 0.2060 -1.0744 0.0000 0.0000 0.0000 -16.6469 -8.8376 13.8198 0.0000 0.0000 0.0000 -0.1400 8.8315 -9.4542 0.4156 -4.1380 -11.4651 0.0000 0.0000 0.0000 19.3449 8.2348 9.2473 -0.2113 -2.9592 8.1652 0.0019 -9.7936 -13.9203 -0.4258 4.1878 -11.6056 -0.6343 0.1036 9.3150 -0.1295 0.0545 -1.6436 0.2129 0.0495 -6.9628 -16.7577 -12.4433 -6.0641 10.6228 -17.1717 18.5423 4.3022 -8.4728 9.2084 -0.0000 -0.0000 0.0000 -89.2017 -4.0259 49.7255 15.3393 -24.6167 -3.3660 -0.0000 0.0000 -6.0640 8.7185 10.9899 1.6745 -7.1250 0.0000 -0.0000 -16.1339 40.5553 1.8222 -0.0000 -0.0000 0.0000 86.4793 -0.2754 69.7437 -44.7892 50.6648 -22.0756 0.0000 0.0000 10.1368 -15.0882 15.9068 -4.2259 7.1250 -0.0000 -0.0000 8.4496 -13.6636 6.2846
0.3273 16.1141 0.2845 -1.6249 -0.0046 -1.0790 0.0000 0.0000 0.0000 -16.5916 -8.6106 13.8309 0.0000 -0.0000 -0.0000 -0.1345 8.7881 -9.5243 0.4518 -4.3123 -11.9570 0.0000 0.0000 0.0000 19.3858 8.3947 9.4241 -0.2051 -2.9157 8.0441 -0.0243 -9.6442 -14.1441 -0.2460 3.1915 -8.8125 -0.6328 0.1432 9.2329 -0.1152 0.1093 -1.6210 0.2189 0.0763 -6.8922 -16.6944 -12.3699 -6.1950 10.6024 -17.0566 18.5989 4.2972 -8.4114 9.2262 -0.0000 -0.0000 0.0000 -89.2460 -3.7818 48.2698 15.0908 -24.2725 -3.2632 -0.0000 0.0000 -5.7706 8.8982 10.9620 1.7053 -7.1250 0.0000 -0.0000 -15.9734 40.5438 1.8077 -0.0000 -0.0000 0.0000 86.6976 -0.5041 68.4229 -43.3695 49.9443 -20.9832 0.0000 0.0000 10.3587 -14.9288 15.7640 -4.1429 7.1250 -0.0000 -0.0000 8.5545 -13.8234 6.3352
0.3276 16.1137 0.2877 -1.6624 -0.0844 -1.0718 0.0000 0.0000 0.0000 -16.5444 -8.5281 13.8254 0.0000 -0.0000 -0.0000 -0.1327 8.7779 -9.5539 0.4644 -4.3711 -12.1231 0.0000 0.0000 0.0000 19.4191 8.4447 9.5191 -0.1975 -2.8620 7.8947 -0.0199 -9.6660 -14.1025 -0.2339 3.1127 -8.5926 -0.6027 0.1630 9.1458 -0.1126 0.1402 -1.5738 0.2004 0.0900 -6.7924 -16.6977 -12.3106 -6.3148 10.7167 -16.9795 18.6068 4.3422 -8.3617 9.2501 0.0000 0.0000 0.0000 -89.2471 -3.5765 47.0458 14.9164 -24.0295 -3.1918 -0.0000 0.0000 -5.5462 9.0001 11.1361 1.7522 -7.1250 0.0000 -0.0000 -15.9326 40.7217 1.7308 0.0000 0.0000 0.0000 86.9577 -0.6413 66.9646 -41.9420 49.1793 -19.8967 0.0000 0.0000 10.4243 -14.5578 15.5775 -3.9893 7.1250 -0.0000 -0.0000 8.8015 -14.0461 6.4806
0.3281 16.1138 0.2872 -1.7011 -0.0401 -1.0869 0.0000 0.0000 0.0000 -16.5169 -8.5691 13.8454 0.0000 0.0000 0.0000 -0.1353 8.7970 -9.5188 0.4433 -4.2722 -11.8437 0.0000 0.0000 0.0000 19.4503 8.3678 9.5992 -0.1857 -2.7755 7.6545 0.0235 -9.8881 -13.6903 -0.4203 4.1613 -11.5309 -0.5582 0.1493 9.1509 -0.1151 0.1271 -1.5275 0.1747 0.0816 -6.7461 -16.6807 -12.2683 -6.4749 10.8098 -16.9221 18.6537 4.3713 -8.3197 9.2938 -0.0000 0.0000 0.0000 -89.1747 -3.3515 46.1379 14.8168 -23.8903 -3.1514 -0.0000 0.0000 -5.6123 9.1447 11.5076 1.8394 -7.1250 0.0000 -0.0000 -15.9085 41.0953 1.5769 -0.0000 0.0000 0.0000 87.2405 -0.7662 65.4110 -40.4935 48.3596 -18.8072 0.0000 0.0000 10.6793 -14.1908 15.4079 -3.8436 7.1250 -0.0000 -0.0000 9.0468 -14.2498 6.6262
0.3371 16.1139 0.2852 -1.8269 0.3022 -1.1188 0.0000 0.0000 0.0000 -16.4391 -8.9127 13.9094 0.0000 0.0000 0.0000 -0.1400 8.8246 -9.4423 0.4386 -4.2497 -11.7803 0.0000 0.0000 0.0000 19.5334 8.0149 9.5664 -0.1811 -2.7411 7.5588 0.0384 -9.9441 -13.5146 -0.5224 4.6322 -12.8624 -0.2849 0.0081 9.2584 -0.1140 -0.0301 -1.5430 0.0453 -0.0060 -6.8227 -16.6850 -12.1964 -6.4980 10.8950 -16.8342 18.6394 4.4147 -8.2715 9.2879 -0.0000 -0.0000 0.0000 -89.0979 -2.9965 45.1045 14.6807 -23.6994 -3.0965 -0.0000 0.0000 -5.5086 9.3189 11.6484 1.8976 -7.1250 0.0000 -0.0000 -15.7971 41.2479 1.5040 -0.0000 -0.0000 0.0000 87.4472 -0.9916 63.9230 -39.0955 47.5248 -17.7692 0.0000 0.0000 10.9565 -14.3644 14.7468 -3.7297 7.1250 -0.0000 -0.0000 8.9267 -14.9052 6.4098
0.3638 16.1141 0.2842 -1.7716 1.2046 -1.1525 0.0000 0.0000 0.0000 -16.6783 -9.8081 14.0576 0.0000 0.0000 0.0000 -0.1553 8.9638 -9.2853 0.4615 -4.3575 -12.0847 0.0000 0.0000 0.0000 19.3140 7.1219 9.4113 -0.1791 -2.7259 7.5166 0.0258 -9.8689 -13.6221 -0.4946 4.5092 -12.5139 0.1430 -0.3146 9.3545 -0.2380 -0.4190 -1.5615 -0.2669 -0.2161 -6.9003 -16.6192 -12.1574 -6.4593 10.9099 -16.7912 18.5758 4.4202 -8.2479 9.2473 -0.0000 -0.0000 0.0000 -89.0353 -2.7147 43.9516 14.3720 -23.2640 -2.9735 -0.0000 0.0000 -5.2242 9.4655 11.2069 1.8559 -7.1250 0.0000 -0.0000 -15.5536 40.8316 1.6438 -0.0000 -0.0000 0.0000 87.6357 -1.2126 62.3937 -37.7237 46.6619 -16.7643 0.0000 0.0000 11.2013 -14.6150 13.9910 -3.6074 7.1250 -0.0000 -0.0000 8.7553 -15.6523 6.1416
0.3394 16.1131 0.2887 -1.7153 0.5085 -1.1336 0.0000 0.0000 0.0000 -16.5892 -9.1052 13.9731 0.0000 0.0000 0.0000 -0.1412 8.8732 -9.5051 0.4555 -4.3295 -12.0055 0.0000 0.0000 0.0000 19.3984 7.7891 9.5921 -0.1785 -2.7211 7.5033 0.0214 -9.8557 -13.6790 -0.4763 4.4260 -12.2784 -0.3979 -0.0346 9.2747 -0.1524 -0.1030 -1.5396 0.0795 -0.0380 -6.8282 -16.5307 -12.1250 -6.4646 10.8604 -16.7338 18.4696 4.4002 -8.2192 9.1897 0.0000 0.0000 0.0000 -89.0123 -2.5270 42.7129 14.0706 -22.8356 -2.8555 -0.0000 0.0000 -4.9203 9.5460 10.8987 1.8212 -7.1250 0.0000 -0.0000 -15.4044 40.5384 1.7418 0.0000 0.0000 0.0000 87.8110 -1.3074 60.8619 -36.2828 45.7067 -15.7246 0.0000 0.0000 11.5109 -13.9727 14.0072 -3.4465 7.1250 -0.0000 -0.0000 9.1932 -15.6860 6.4500
